<svg id="图层_1" data-name="图层 1" xmlns="http://www.w3.org/2000/svg" viewBox="0 0 100 100"><defs><style>.cls-1{fill:aqua;}</style></defs><title>服务资源管理</title><path class="cls-1" d="M27.06,46H58.15a2.61,2.61,0,0,0,2.31-1.4l7.42-14.17a2.63,2.63,0,0,0,0-2.51L60.44,15.07a2.63,2.63,0,0,0-2.26-1.3H42.64a2.63,2.63,0,0,0-2.26,1.3l-15.58,27A2.61,2.61,0,0,0,27.06,46ZM44.14,19H56.67L62.6,29.24l-6,11.51h-25Z"/><path class="cls-1" d="M47.82,50.55a.37.37,0,0,0-.32.55l3.68,6.36a.36.36,0,0,0,.63,0l3.33-6.36a.36.36,0,0,0-.32-.53Z"/><path class="cls-1" d="M41,51.05a2.59,2.59,0,0,0-2.25-1.31H21.87a2.62,2.62,0,0,0-2.26,1.31L11.94,64.34a2.57,2.57,0,0,0,0,2.6L19.4,79.88a2.61,2.61,0,0,0,2.26,1.3H53.93a2.61,2.61,0,0,0,2.26-1.3,2.64,2.64,0,0,0,0-2.61ZM23.17,76l-6-10.33L23.37,55H37.28L49.41,76Z"/><path class="cls-1" d="M88.6,63.86,73.15,37.1a2.52,2.52,0,0,0-2.31-1.3,2.6,2.6,0,0,0-2.25,1.39L54.43,64.24a2.58,2.58,0,0,0,0,2.51l7.58,13.13a2.58,2.58,0,0,0,2.25,1.3H78.18a2.6,2.6,0,0,0,2.23-1.25l8.16-13.41A2.59,2.59,0,0,0,88.6,63.86ZM76.72,76H65.82L59.71,65.39,71,43.81,83.32,65.13Z"/></svg>