<svg id="图层_1" data-name="图层 1" xmlns="http://www.w3.org/2000/svg" viewBox="0 0 580 122"><defs><style>.cls-1{fill:aqua;}.cls-2{fill:#ebeffc;}</style></defs><title>轩辕logo</title><circle class="cls-1" cx="55.08" cy="20.6" r="5.35" transform="translate(1.57 44.98) rotate(-45)"/><path class="cls-1" d="M90.65,76.37A5.35,5.35,0,1,0,96,81.71,5.35,5.35,0,0,0,90.65,76.37Z"/><path class="cls-1" d="M19.35,76.37a5.35,5.35,0,1,0,5.35,5.34A5.34,5.34,0,0,0,19.35,76.37Z"/><path class="cls-1" d="M55.08,68.9A7.61,7.61,0,0,0,59,67.81v0h0a7.7,7.7,0,0,0-7.66-13.35v.11l-.09-.06a7.69,7.69,0,0,0-3.88,6.58h0s0,0,0,.08A7.73,7.73,0,0,0,55.08,68.9Z"/><path class="cls-1" d="M66.07,71.89l12,6.9a12.92,12.92,0,0,1,3.85-6.59l-12-6.94A15.39,15.39,0,0,1,66.07,71.89Z"/><path class="cls-1" d="M51.33,33V46.29a15.41,15.41,0,0,1,3.75-.48,15.15,15.15,0,0,1,3.89.52V32.92a11.81,11.81,0,0,1-7.64,0Z"/><path class="cls-1" d="M32.07,79.09l12.17-7a15.34,15.34,0,0,1-4-6.87l-12.14,7A12.92,12.92,0,0,1,32.07,79.09Z"/><path class="cls-1" d="M66,50.34a15.42,15.42,0,0,1,3.94,6.9L87,47.38V69.32a11.82,11.82,0,0,1,7.64.09v-31L67.83,22.91a13,13,0,0,1-3.52,6.8L83,40.5Z"/><path class="cls-1" d="M78.05,84.71,59,95.72V76a15.15,15.15,0,0,1-3.89.52,15.41,15.41,0,0,1-3.75-.48V95.73L32,84.56a12.89,12.89,0,0,1-3.82,6.62l27,15.57L82,91.28A12.9,12.9,0,0,1,78.05,84.71Z"/><path class="cls-1" d="M23.32,69.41V47.21l17,9.8a15.32,15.32,0,0,1,3.83-6.61l-17-9.81L45.89,29.77A13,13,0,0,1,42.33,23L15.68,38.38V69.32a12.75,12.75,0,0,1,3.67-.59A12.77,12.77,0,0,1,23.32,69.41Z"/><path class="cls-2" d="M311.86,47.05h9.58V61.42a1,1,0,0,0,1,1H332a1,1,0,0,0,.95-1V47.05h9.59a1,1,0,0,0,1-1V43.21a1,1,0,0,0-1-1h-9.59V31.72a1,1,0,0,0-.95-1H322.4a1,1,0,0,0-1,1V42.26h-9.58a1,1,0,0,0-1,1v2.88A1,1,0,0,0,311.86,47.05Z"/><path class="cls-2" d="M313.15,41.3h5.75a1,1,0,0,0,1-1l-.67-7.67a1,1,0,0,0-.95-.87h-5.74a1,1,0,0,0-1,1l.67,7.66A1,1,0,0,0,313.15,41.3Z"/><path class="cls-2" d="M335.48,41.3h5.74a1,1,0,0,0,.95-.88l.67-7.66a1,1,0,0,0-.95-1h-5.74a1,1,0,0,0-1,.87l-.67,7.67A1,1,0,0,0,335.48,41.3Z"/><path class="cls-2" d="M313.22,49a1,1,0,0,0-1,.89l-.8,11.5a1,1,0,0,0,1,1h5.74a1,1,0,0,0,1-.9l.8-11.49a1,1,0,0,0-1-1Z"/><path class="cls-2" d="M341.15,49h-5.74a1,1,0,0,0-1,1l.81,11.49a1,1,0,0,0,.95.9H342a1,1,0,0,0,1-1l-.8-11.5A1,1,0,0,0,341.15,49Z"/><path class="cls-2" d="M370.3,39.38H357.12l.81-6.59a1,1,0,0,0-1-1.07h-8.6a1,1,0,0,0-1,.84l-2.1,17.24a1,1,0,0,0,.95,1.08h8.61a1,1,0,0,0,.95-.84l.83-6.83h3.11V58.32a.87.87,0,0,1-.1.42l-1.43,2.95-1.27-3a.94.94,0,0,1-.07-.37V54.71a1,1,0,0,0-1-1h-9.58a1,1,0,0,0-1,1v5.55a.84.84,0,0,0,.08.38l6.19,14.59L344.43,90.1V88.24a1,1,0,0,0-1-1h-.65a1,1,0,0,1-.55-.17L336.36,83l5.75-4a1,1,0,0,0,.41-.79V71h1a1,1,0,0,0,1-1V67.17a1,1,0,0,0-1-1H323.35v-1a1,1,0,0,0-1-1h-7.67a1,1,0,0,0-1,1v1h-1.91a1,1,0,0,0-1,1V70a1,1,0,0,0,1,1h1.91v7.18a1,1,0,0,0,.39.77l5.15,3.79-6.25,4.37a1,1,0,0,1-.55.17h-.65a1,1,0,0,0-1,1v2.88a1,1,0,0,0,1,.95h11.19a1,1,0,0,0,.55-.17L327.78,89l3.94,2.91a1,1,0,0,0,.57.18h11.18a.93.93,0,0,1,1.53,0h10.33a1,1,0,0,0,.86-.54l1.27-2.62,1.09,2.58a1,1,0,0,0,.89.58H369.8a1,1,0,0,0,.88-1.33l-6.62-15.47,6.14-12.7a.86.86,0,0,0,.1-.41V43.21a1,1,0,0,0,1-1V40.34A1,1,0,0,0,370.3,39.38ZM332,73.37a1,1,0,0,1-.41.79l-3.9,2.73-3.91-2.73a1,1,0,0,1-.41-.79V71H332Z"/><path class="cls-2" d="M394.25,46.09h-3.83V31.72a1,1,0,0,0-1-1h-9.58a1,1,0,0,0-1,1V46.09h-3.83a1,1,0,0,0-1,1v2.87a1,1,0,0,0,1,1h3.83V70.37l-4.14,1a1,1,0,0,0-.74.93v2.78a1,1,0,0,0,1.18.93l3.69-.88V86.33a1,1,0,0,1-1,1h-1.91a1,1,0,0,0-1,1v2.88a1,1,0,0,0,1,.95h13.41a1,1,0,0,0,1-.95V72.36l3.18-.77a1,1,0,0,0,.74-.93V67.88a1,1,0,0,0-1.18-.93l-2.73.66V50.88h3.83a1,1,0,0,0,1-1V47.05A1,1,0,0,0,394.25,46.09Z"/><path class="cls-2" d="M434.49,31.72H397.12a1,1,0,0,0-.95,1V91.12a.94.94,0,0,0,.95.95h10.54a1,1,0,0,0,1-.95V50.88a1,1,0,0,1,1-1h24.91a1,1,0,0,0,1-1V32.68A1,1,0,0,0,434.49,31.72Zm-9.38,12.45a1,1,0,0,1-1,1H407.46a1,1,0,0,1-1-1v-6.7a1,1,0,0,1,1-1h16.69a1,1,0,0,1,1,1Z"/><path class="cls-2" d="M433.53,58.54h-4.79a1,1,0,0,1-1-.95v-4.8a1,1,0,0,0-1-.95h-9.58a1,1,0,0,0-1,.95v4.8a1,1,0,0,1-.95.95h-4.79a1,1,0,0,0-1,1v2.88a1,1,0,0,0,1,.95h4.79a1,1,0,0,1,.95,1v4.79a1,1,0,0,1-.95,1h-3.84a1,1,0,0,0-.95,1V91.12a.94.94,0,0,0,.95.95h22a1,1,0,0,0,1-.95V71a1,1,0,0,0-1-1h-4.79a1,1,0,0,1-1-1V64.29a1,1,0,0,1,1-1h4.79a1,1,0,0,0,1-.95V59.5A1,1,0,0,0,433.53,58.54Zm-5.29,18.21v8.62a1,1,0,0,1-1,1h-9.54a1,1,0,0,1-1-1V76.75a1,1,0,0,1,1-1h9.54A1,1,0,0,1,428.24,76.75Z"/><path class="cls-2" d="M183,60.74V55.36a.67.67,0,0,0-.67-.67H171.88a.68.68,0,0,1-.67-.68V38.53a.68.68,0,0,1,.67-.68H179a.67.67,0,0,0,.67-.67V31.8a.67.67,0,0,0-.67-.68H150a.67.67,0,0,0-.67.68v5.38a.67.67,0,0,0,.67.67h7.07a.68.68,0,0,1,.67.68V54a.68.68,0,0,1-.67.68H146.63a.67.67,0,0,0-.67.67v6.06H142.6V48.63a.68.68,0,0,0-.68-.68h-9.16l.53-3.36H147a.67.67,0,0,0,.67-.68V38.53a.68.68,0,0,0-.67-.68H135.14a.67.67,0,0,1-.67-.77l.81-5.18a.67.67,0,0,0-.66-.78h-8.74a.67.67,0,0,0-.66.57l-.88,5.6a.67.67,0,0,1-.67.56h-4a.68.68,0,0,0-.68.68v6.06h4.16l-3.7,23.56h13v6.2a.68.68,0,0,1-.62.67l-12.27,1.06a.67.67,0,0,0-.61.67v5.37a.68.68,0,0,0,.73.67l12-1.05a.68.68,0,0,1,.73.67V91a.67.67,0,0,0,.67.67h8.75a.68.68,0,0,0,.68-.67V81.42a.67.67,0,0,1,.61-.67l3.85-.34a.67.67,0,0,0,.62-.67V74.38a.67.67,0,0,0-.73-.67l-3.62.31a.67.67,0,0,1-.73-.67V68.82a.67.67,0,0,1,.67-.67H147a.67.67,0,0,0,.67-.67V62.09a.68.68,0,0,1,.68-.67h8.75a.67.67,0,0,1,.67.67V91a.67.67,0,0,0,.68.67h12.11a.67.67,0,0,0,.68-.67V62.09a.67.67,0,0,1,.67-.67h10.44A.67.67,0,0,0,183,60.74Zm-50.49.68h-1.85l1.85-11.78Z"/><path class="cls-2" d="M204.87,48.63a.67.67,0,0,0-.68-.68H195l.48-3.36h14.44v4.2h33a.67.67,0,0,0,.68-.67v-3.7a.67.67,0,0,0-.68-.67h-9.42V40.38h9.42a.67.67,0,0,0,.68-.67V36a.67.67,0,0,0-.68-.67h-9.42V31.12H220v4.21h-10.1v2.52H197.19a.68.68,0,0,1-.67-.76l.73-5.2a.67.67,0,0,0-.67-.77h-8.74a.67.67,0,0,0-.66.58l-.86,6.15H183v6.74h2.39l-3.29,23.56h12.68v6.27a.67.67,0,0,1-.62.67l-11.42,1a.67.67,0,0,0-.62.67v5.37a.68.68,0,0,0,.74.67l11.19-1a.67.67,0,0,1,.73.67V91a.67.67,0,0,0,.67.67h8.75a.67.67,0,0,0,.68-.67V80.87l3.36-.29V73.86l-3.36.3v-6h3.36V61.42h-3.36Zm5-8.25H220v3.37h-10.1Zm-15.15,21h-1.65l1.65-11.78Z"/><path class="cls-2" d="M242.76,70.78l-4.84,1.41-1.2-4h6.18a.67.67,0,0,0,.68-.67V52a.67.67,0,0,0-.68-.67H210.59a.67.67,0,0,0-.67.67V67.48a.67.67,0,0,0,.67.67h5.16l-5.84,15.92a.68.68,0,0,0,.63.91H216a.67.67,0,0,1,.67.67V91a.67.67,0,0,0,.67.67h12.12a.67.67,0,0,0,.67-.67V86.83h-3.36v-12h-3.37l2.47-6.73h.77l6.85,23.08a.65.65,0,0,0,.64.48h8.7a.67.67,0,0,0,.64-.86l-3.7-12.48,3.78-1.1.09-5.83A.67.67,0,0,0,242.76,70.78Zm-26.11-9.36V58.05h20.2v3.37Z"/><path class="cls-2" d="M306.86,48H288a.67.67,0,0,1-.67-.67V31.8a.67.67,0,0,0-.68-.68H267.81a.67.67,0,0,0-.67.68V47.28a.67.67,0,0,1-.67.67H247.62a.68.68,0,0,0-.68.68V54a.69.69,0,0,0,.68.68h18.31a.67.67,0,0,1,.59,1L250.67,85h-3.73v6.73h16.51a.65.65,0,0,0,.59-.35l12.61-23.29a.67.67,0,0,1,1.18,0l12.6,23.29a.68.68,0,0,0,.6.35h16.5V85h-3.72L288,55.68a.67.67,0,0,1,.6-1h18.31a.68.68,0,0,0,.67-.68V48.63A.67.67,0,0,0,306.86,48Z"/><path class="cls-2" d="M498.73,31.12H439.48a.67.67,0,0,0-.67.68v5.38a.67.67,0,0,0,.67.67H461.7a.68.68,0,0,1,.67.68V64.11a.67.67,0,0,1-.67.67H439.48a.67.67,0,0,0-.67.68v5.38a.68.68,0,0,0,.67.68H461.7a.67.67,0,0,1,.67.67V91a.68.68,0,0,0,.68.67h12.11a.67.67,0,0,0,.68-.67V72.19a.67.67,0,0,1,.67-.67h22.22a.68.68,0,0,0,.67-.68V65.46a.67.67,0,0,0-.67-.68H476.51a.67.67,0,0,1-.67-.67V38.53a.68.68,0,0,1,.67-.68h22.22a.67.67,0,0,0,.67-.67V31.8A.67.67,0,0,0,498.73,31.12Z"/><path class="cls-2" d="M444.17,61.42h12.11a.67.67,0,0,0,.66-.77L454.31,41.8a.67.67,0,0,0-.66-.58H441.54a.68.68,0,0,0-.67.77l2.64,18.85A.67.67,0,0,0,444.17,61.42Z"/><path class="cls-2" d="M484.57,41.22a.68.68,0,0,0-.67.58l-2.63,18.85a.67.67,0,0,0,.66.77H494a.69.69,0,0,0,.67-.58L497.34,42a.68.68,0,0,0-.67-.77Z"/><circle class="cls-2" cx="549.89" cy="41.22" r="6.73"/><path class="cls-2" d="M559.32,51.32H521.66a.68.68,0,0,1-.64-.89L527.14,32a.68.68,0,0,0-.64-.89h-12a.68.68,0,0,0-.64.46l-8.48,25.59a.67.67,0,0,0,.64.88h53.35a.67.67,0,0,0,.67-.67V52A.67.67,0,0,0,559.32,51.32Z"/><path class="cls-2" d="M559.32,64.78H506.81a.67.67,0,0,0-.68.68V91a.67.67,0,0,0,.68.67h52.51A.67.67,0,0,0,560,91V65.46A.67.67,0,0,0,559.32,64.78ZM546.53,84.31a.68.68,0,0,1-.68.67H520.27a.67.67,0,0,1-.67-.67V72.19a.67.67,0,0,1,.67-.67h25.58a.68.68,0,0,1,.68.67Z"/></svg>