<svg id="图层_1" data-name="图层 1" xmlns="http://www.w3.org/2000/svg" viewBox="0 0 110 122.75"><defs><style>.cls-1{fill:#fff;}</style></defs><title>轩辕logo</title><path class="cls-1" d="M55.1,14.35a7.18,7.18,0,1,0-7.17-7.18A7.18,7.18,0,0,0,55.1,14.35Z"/><path class="cls-1" d="M102.83,82A7.18,7.18,0,1,0,110,89.16,7.17,7.17,0,0,0,102.83,82Z"/><path class="cls-1" d="M7.17,82a7.18,7.18,0,1,0,7.18,7.17A7.17,7.17,0,0,0,7.17,82Z"/><path class="cls-1" d="M55.1,72a10.22,10.22,0,0,0,5.23-1.46v0l0,0A10.32,10.32,0,0,0,50.08,52.59v.14L50,52.66a10.29,10.29,0,0,0-5.21,8.83h0s0,.08,0,.12A10.36,10.36,0,0,0,55.1,72Z"/><path class="cls-1" d="M69.85,76l16,9.26a17.35,17.35,0,0,1,5.17-8.85L75,67.09A20.61,20.61,0,0,1,69.85,76Z"/><path class="cls-1" d="M50.08,23.77V41.64a19.8,19.8,0,0,1,10.25,0v-18a17.38,17.38,0,0,1-5.23.89A17.08,17.08,0,0,1,50.08,23.77Z"/><path class="cls-1" d="M40.57,76.21A20.53,20.53,0,0,1,35.23,67l-16.29,9.4a17.38,17.38,0,0,1,5.3,9.25Z"/><path class="cls-1" d="M69.71,47.08A20.71,20.71,0,0,1,75,56.33l22.9-13.22V72.53a17.4,17.4,0,0,1,4.92-.79,17.19,17.19,0,0,1,5.33.92V31L72.21,10.28a17.35,17.35,0,0,1-4.72,9.11L92.58,33.88Z"/><path class="cls-1" d="M60.33,108V81.52a20.49,20.49,0,0,1-5.23.7,20.8,20.8,0,0,1-5-.64V108L24.14,93A17.33,17.33,0,0,1,19,101.86L55.2,122.75l36-20.75a17.32,17.32,0,0,1-5.23-8.82Z"/><path class="cls-1" d="M12.5,72.66V42.87L35.28,56a20.53,20.53,0,0,1,5.14-8.86L17.63,34,42.78,19.47A17.3,17.3,0,0,1,38,10.4L2.25,31V72.53a17.4,17.4,0,0,1,4.92-.79A17.14,17.14,0,0,1,12.5,72.66Z"/></svg>