<svg id="图层_1" data-name="图层 1" xmlns="http://www.w3.org/2000/svg" viewBox="0 0 100 100"><defs><style>.cls-1{fill:aqua;}</style></defs><title>运维中心</title><path class="cls-1" d="M80.25,26.85,76.41,23a.65.65,0,0,0-.78-.12l-9.5,5.25a.63.63,0,0,0-.29.33l-2.81,7a.65.65,0,0,0,.14.71l.57.57L53,47l3.3,3.31L66.52,39.53l.57.56a.66.66,0,0,0,.72.15l7-2.81a.64.64,0,0,0,.33-.3l5.25-9.49A.67.67,0,0,0,80.25,26.85Z"/><path class="cls-1" d="M23,70.65A2.29,2.29,0,0,0,22.53,74l6.77,6.77a2.29,2.29,0,0,0,3.32-.42L47.14,63.84l-7.72-7.71Z"/><path class="cls-1" d="M48,50.52a2.12,2.12,0,0,0-3,3L66.52,75.07a2.12,2.12,0,1,0,3-3Z"/><path class="cls-1" d="M44.72,42.41A15.22,15.22,0,0,0,26.07,21.84a.83.83,0,0,0-.33,1.38L31.49,29A5.87,5.87,0,0,1,32,36.8a5.71,5.71,0,0,1-8.45.42l-5.93-5.93a.83.83,0,0,0-1.37.34A15.19,15.19,0,0,0,36.83,50.25h0l28,27.95a5.56,5.56,0,0,0,7.86-7.86ZM70.13,75.68a3,3,0,0,1-4.23,0L44.35,54.13a3,3,0,1,1,4.22-4.22L70.13,71.46A3,3,0,0,1,70.13,75.68Z"/></svg>