<svg id="图层_1" data-name="图层 1" xmlns="http://www.w3.org/2000/svg" viewBox="0 0 100 100"><defs><style>.cls-1{fill:aqua;}</style></defs><title>数据开发</title><path class="cls-1" d="M68.91,74.45a4,4,0,0,1-1.42-7.74L82,61.23V39.5L67.49,34a4,4,0,0,1,2.83-7.49L87.4,33A4,4,0,0,1,90,36.74V64a4,4,0,0,1-2.59,3.74L70.32,74.19A3.9,3.9,0,0,1,68.91,74.45Z"/><path class="cls-1" d="M30.9,74.45a3.9,3.9,0,0,1-1.41-.26L12.41,67.74A4,4,0,0,1,9.82,64V36.74A4,4,0,0,1,12.41,33l17.08-6.45A4,4,0,0,1,32.32,34L17.82,39.5V61.23l14.5,5.48a4,4,0,0,1-1.42,7.74Z"/><path class="cls-1" d="M42.9,70.78a4.09,4.09,0,0,1-1.56-.31,4,4,0,0,1-2.12-5.25l14-33a4,4,0,1,1,7.37,3.13l-14,33A4,4,0,0,1,42.9,70.78Z"/></svg>