<svg id="图层_1" data-name="图层 1" xmlns="http://www.w3.org/2000/svg" viewBox="0 0 463 122"><defs><style>.cls-1{fill:#ebeffc;}.cls-2{fill:aqua;}</style></defs><title>元数据管理</title><path class="cls-1" d="M190.66,48.92a1,1,0,0,0-.94.87L189,61.22a1,1,0,0,0,.94,1h6.24a.94.94,0,0,0,.94-.87l.8-11.43a.93.93,0,0,0-.93-1Z"/><path class="cls-1" d="M221.45,66.47a.94.94,0,0,0-.94-.94H202.65a.94.94,0,0,1-.94-.94v-.12a.94.94,0,0,0-.94-.94h-9.05a.94.94,0,0,0-.94.94v.12a.94.94,0,0,1-.94.94.94.94,0,0,0-.93.94v2.81a.94.94,0,0,0,.93.94.94.94,0,0,1,.94.93v6.34a.94.94,0,0,0,.38.75l4.25,3.13a.93.93,0,0,1,0,1.52L190.9,86a1,1,0,0,1-.54.16h-.52a.94.94,0,0,0-.93.94V90a.94.94,0,0,0,.93.94h10.58a.9.9,0,0,0,.53-.17l3.21-2.25a.93.93,0,0,1,1.09,0l3,2.23a.94.94,0,0,0,.56.18h10.56a.94.94,0,0,0,.93-.94V87.14a.94.94,0,0,0-.93-.94h-.51a1,1,0,0,1-.55-.17l-4.13-3a1,1,0,0,1,0-1.53l4.65-3.27a.94.94,0,0,0,.4-.77V71.15a.94.94,0,0,1,.94-.93h.31a.94.94,0,0,0,.94-.94Zm-13.06,6.82a1,1,0,0,1-.39.77l-2.48,1.76a1,1,0,0,1-1.11,0l-2.32-1.74a.94.94,0,0,1-.38-.75V71.15a.94.94,0,0,1,.94-.93h4.81a.93.93,0,0,1,.93.93Z"/><path class="cls-1" d="M218.7,48.92h-6.31a.93.93,0,0,0-.93,1l.75,11.43a.93.93,0,0,0,.93.87h6.31a.93.93,0,0,0,.93-1l-.75-11.43A.93.93,0,0,0,218.7,48.92Z"/><path class="cls-1" d="M247.12,39.3H235.25a.94.94,0,0,1-.93-1l.73-5.7a.94.94,0,0,0-.93-1.06h-9a.94.94,0,0,0-.93.82l-2.33,18.43a.94.94,0,0,0,.93,1h8.92a.94.94,0,0,0,.93-.81l.79-6.12a.94.94,0,0,1,.93-.81h.8a.93.93,0,0,1,.93.93V58.33a1.1,1.1,0,0,1-.08.4l-.36.75a.93.93,0,0,1-1.7,0l-.34-.75a1,1,0,0,1-.08-.38V54.41a.93.93,0,0,0-.93-.93h-9.25a.93.93,0,0,0-.93.93v6.05a.84.84,0,0,0,.08.38l5.86,13a1,1,0,0,1,0,.79l-7.11,15a.93.93,0,0,0,.84,1.33H232a1,1,0,0,0,.85-.54l.69-1.48a.94.94,0,0,1,1.71,0l.66,1.46a.92.92,0,0,0,.85.55h9.87a.94.94,0,0,0,.86-1.32l-6.78-15a.91.91,0,0,1,0-.79l6.21-13a.9.9,0,0,0,.09-.4V43.42h1V40.24A.94.94,0,0,0,247.12,39.3Z"/><path class="cls-1" d="M212.42,41.49h6.3a.94.94,0,0,0,.94-.85l.69-7a.94.94,0,0,0-.94-1h-6.3a.93.93,0,0,0-.93.84l-.69,7A.94.94,0,0,0,212.42,41.49Z"/><path class="cls-1" d="M190.63,41.49h6.29a.94.94,0,0,0,.93-1l-.73-7a.94.94,0,0,0-.94-.84h-6.24a.94.94,0,0,0-.93,1l.69,7A.94.94,0,0,0,190.63,41.49Z"/><path class="cls-1" d="M189.84,47.54H198a.94.94,0,0,1,.93.94V61.29a.94.94,0,0,0,.94.93h9.49a.94.94,0,0,0,.94-.93V48.48a.94.94,0,0,1,.94-.94h8.24a.93.93,0,0,0,.94-.93V43.73a.94.94,0,0,0-.94-.93h-8.24a.94.94,0,0,1-.94-.94V32.43a.94.94,0,0,0-.94-.94H199.9a.94.94,0,0,0-.94.94v9.43a.94.94,0,0,1-.93.94h-8.19a.93.93,0,0,0-.93.93v2.88A.93.93,0,0,0,189.84,47.54Z"/><path class="cls-1" d="M309.13,58h-3.87a1.43,1.43,0,0,1-1.44-1.43V53.6a1.43,1.43,0,0,0-1.44-1.43h-8.86a1.43,1.43,0,0,0-1.44,1.43v2.94A1.43,1.43,0,0,1,290.64,58h-3.49a1.44,1.44,0,0,0-1.44,1.44v1.81a1.44,1.44,0,0,0,1.44,1.44h3.49a1.43,1.43,0,0,1,1.44,1.44v4.05a1.43,1.43,0,0,1-1.44,1.44h-2.87A1.44,1.44,0,0,0,286.33,71v18.3a1.44,1.44,0,0,0,1.44,1.43H305.7A4.22,4.22,0,0,0,310,86.7V71a1.43,1.43,0,0,0-1.43-1.44h-3.31a1.43,1.43,0,0,1-1.44-1.44V64.1a1.43,1.43,0,0,1,1.44-1.44h3.87a1.45,1.45,0,0,0,1.44-1.44V59.41A1.45,1.45,0,0,0,309.13,58Zm-8.68,26.36a1.86,1.86,0,0,1-1.87,1.75h-1.25a1.43,1.43,0,0,1-1.44-1.44V75.71a1.43,1.43,0,0,1,1.44-1.43H299a1.43,1.43,0,0,1,1.44,1.43Z"/><path class="cls-1" d="M269.53,43.11h-.81a1.43,1.43,0,0,1-1.43-1.44V32.93a1.45,1.45,0,0,0-1.44-1.44h-9.31a1.44,1.44,0,0,0-1.43,1.44v8.74a1.44,1.44,0,0,1-1.44,1.44H253a1.43,1.43,0,0,0-1.43,1.44v1.93A1.43,1.43,0,0,0,253,47.92h.69a1.44,1.44,0,0,1,1.44,1.44V67.2A1.44,1.44,0,0,1,254,68.6l-1.32.3a1.43,1.43,0,0,0-1.12,1.4v1.83a1.44,1.44,0,0,0,1.78,1.4,1.43,1.43,0,0,1,1.78,1.39v9.41a1.89,1.89,0,0,1-2,1.75h-1.25v3.37a1.44,1.44,0,0,0,1.44,1.44h7.18c3.75,0,6.81-2.69,6.81-6V71.27a1.42,1.42,0,0,1,1.08-1.39l1.52-.39A1.43,1.43,0,0,0,271,68.1V66.32a1.43,1.43,0,0,0-1.79-1.39l-.1,0a1.43,1.43,0,0,1-1.79-1.39V49.36a1.43,1.43,0,0,1,1.43-1.44h.81A1.43,1.43,0,0,0,271,46.48V44.55A1.43,1.43,0,0,0,269.53,43.11Z"/><path class="cls-1" d="M309.13,32.49H273.84a1.44,1.44,0,0,0-1.43,1.44V89.45a1.44,1.44,0,0,0,1.43,1.44H283a1.44,1.44,0,0,0,1.44-1.44V51.79a1.43,1.43,0,0,1,1.44-1.43h18.48a6.1,6.1,0,0,0,6.19-5.88V33.93A1.45,1.45,0,0,0,309.13,32.49ZM298.51,43.92a1.73,1.73,0,0,1-1.87,1.69H285.9a1.44,1.44,0,0,1-1.44-1.44V38.61a1.43,1.43,0,0,1,1.44-1.43h11.18a1.43,1.43,0,0,1,1.43,1.43Z"/><path class="cls-1" d="M317.58,47.51h11a.86.86,0,0,0,.85-.7l1.5-7.57h.35l1.48,6.56a.86.86,0,0,0,.84.68h9.89a.87.87,0,0,0,.84-1.06l-1.15-5.12a.87.87,0,0,1,.84-1.06h.11a.87.87,0,0,0,.87-.87V34.93a.87.87,0,0,0-.87-.86H333a.88.88,0,0,1-.85-1h0a.86.86,0,0,0-.85-1h-11a.87.87,0,0,0-.85.7l-2.72,13.78A.87.87,0,0,0,317.58,47.51Z"/><path class="cls-1" d="M346.74,46.48h11a.86.86,0,0,0,.85-.7l1.29-6.54h.35l1.49,6.56a.86.86,0,0,0,.84.68h9.89a.87.87,0,0,0,.84-1.06L372.1,40.3a.86.86,0,0,1,.84-1.06h.11a.86.86,0,0,0,.86-.87V34.93a.86.86,0,0,0-.86-.86H361.92a.87.87,0,0,1-.85-1h0a.86.86,0,0,0-.85-1h-11a.87.87,0,0,0-.85.7l-2.52,12.74A.88.88,0,0,0,346.74,46.48Z"/><path class="cls-1" d="M374.08,50.62h-20a.87.87,0,0,1-.87-.87v-.34a.86.86,0,0,0-.87-.86H338.58a.86.86,0,0,0-.86.86v.34a.87.87,0,0,1-.87.87h-20a.86.86,0,0,0-.87.86v7.58a.86.86,0,0,0,.87.86h12.74a.86.86,0,0,0,.87-.86V55.62a.87.87,0,0,1,.86-.87H359.6a.87.87,0,0,1,.87.87v3.44a.86.86,0,0,0,.87.86h12.74a.86.86,0,0,0,.87-.86V51.48A.86.86,0,0,0,374.08,50.62Z"/><path class="cls-1" d="M373.05,78.54h-38.6a.87.87,0,0,1-.87-.87V76.3a.86.86,0,0,1,.87-.86H370a.87.87,0,0,0,.86-.87V63.89A.86.86,0,0,0,370,63H321a.85.85,0,0,0-.86.86V90.08A.86.86,0,0,0,321,91h52.05a.86.86,0,0,0,.86-.87V79.4A.86.86,0,0,0,373.05,78.54ZM333.58,68a.87.87,0,0,1,.87-.87H356.5a.87.87,0,0,1,.87.87V69.4a.86.86,0,0,1-.87.86H334.45a.86.86,0,0,1-.87-.86ZM359.8,84.91a.87.87,0,0,1-.87.87H334.45a.87.87,0,0,1-.87-.87V83.54a.86.86,0,0,1,.87-.86h24.48a.86.86,0,0,1,.87.86Z"/><path class="cls-1" d="M394.51,34.07h-14.3a1.12,1.12,0,0,0-1.12,1.12v1.89a1.13,1.13,0,0,0,1.12,1.13h.85a1.13,1.13,0,0,1,1.13,1.12V58.8a1.13,1.13,0,0,1-1.13,1.12h-.85a1.13,1.13,0,0,0-1.12,1.13v1.88a1.12,1.12,0,0,0,1.12,1.13h.85a1.13,1.13,0,0,1,1.13,1.13V84.65a1.14,1.14,0,0,1-1.13,1.13h-.85a1.12,1.12,0,0,0-1.12,1.12v2.92A1.13,1.13,0,0,0,380.21,91h14.3a1.13,1.13,0,0,0,1.12-1.13V86.9a1.12,1.12,0,0,0-1.12-1.12h-.85a1.13,1.13,0,0,1-1.13-1.13V65.19a1.12,1.12,0,0,1,1.13-1.13h.85a1.12,1.12,0,0,0,1.12-1.13V61.05a1.13,1.13,0,0,0-1.12-1.13h-.85a1.12,1.12,0,0,1-1.13-1.12V39.33a1.12,1.12,0,0,1,1.13-1.12h.85a1.13,1.13,0,0,0,1.12-1.13V35.19A1.12,1.12,0,0,0,394.51,34.07Z"/><path class="cls-1" d="M425.72,65.09h10.15A1.12,1.12,0,0,0,437,64V34.19A1.16,1.16,0,0,0,435.84,33H400.89a1.13,1.13,0,0,0-1.12,1.13V64a1.12,1.12,0,0,0,1.12,1.12h10.16a1.13,1.13,0,0,1,1.13,1.13v4a1.12,1.12,0,0,1-1.13,1.13H400.89a1.12,1.12,0,0,0-1.12,1.12v2.92a1.12,1.12,0,0,0,1.12,1.13h10.16a1.12,1.12,0,0,1,1.13,1.13v6a1.12,1.12,0,0,1-1.13,1.12H399.86a1.13,1.13,0,0,0-1.12,1.13v3.95A1.13,1.13,0,0,0,399.86,91h36A1.13,1.13,0,0,0,437,89.82V85.87a1.13,1.13,0,0,0-1.13-1.13H425.72a1.12,1.12,0,0,1-1.13-1.12v-6a1.12,1.12,0,0,1,1.13-1.13h9.12A1.13,1.13,0,0,0,436,75.34V72.42a1.13,1.13,0,0,0-1.13-1.12h-9.12a1.12,1.12,0,0,1-1.13-1.13v-4A1.13,1.13,0,0,1,425.72,65.09Zm-1.13-27.83a1.12,1.12,0,0,1,1.13-1.12h.85a1.12,1.12,0,0,1,1.12,1.12v7.06a1.12,1.12,0,0,1-1.12,1.12h-.85a1.12,1.12,0,0,1-1.13-1.12Zm0,14.48a1.12,1.12,0,0,1,1.13-1.12h.85a1.12,1.12,0,0,1,1.12,1.12V58.8a1.12,1.12,0,0,1-1.12,1.12h-.85a1.12,1.12,0,0,1-1.13-1.12ZM412.18,58.8a1.12,1.12,0,0,1-1.13,1.12h-.85a1.12,1.12,0,0,1-1.12-1.12V51.74a1.12,1.12,0,0,1,1.12-1.12h.85a1.12,1.12,0,0,1,1.13,1.12Zm0-14.48a1.12,1.12,0,0,1-1.13,1.12h-.85a1.12,1.12,0,0,1-1.12-1.12V37.26a1.12,1.12,0,0,1,1.12-1.12h.85a1.12,1.12,0,0,1,1.13,1.12Z"/><rect class="cls-1" x="132" y="33" width="47" height="7" rx="1.43"/><path class="cls-1" d="M184,55.57V51.43A1.43,1.43,0,0,0,182.57,50H128.43A1.43,1.43,0,0,0,127,51.43v4.14A1.43,1.43,0,0,0,128.43,57h5.21A1.43,1.43,0,0,1,135,58.8l-8.13,30.4a1.43,1.43,0,0,0,1.38,1.8h11.54a1.44,1.44,0,0,0,1.38-1.06l8.52-31.88A1.43,1.43,0,0,1,151.09,57h7.48A1.43,1.43,0,0,1,160,58.43V89.57A1.43,1.43,0,0,0,161.43,91h21.14A1.43,1.43,0,0,0,184,89.57V86.43A1.43,1.43,0,0,0,182.57,85h-6.14A1.43,1.43,0,0,1,175,83.57V58.43A1.43,1.43,0,0,1,176.43,57h6.14A1.43,1.43,0,0,0,184,55.57Z"/><path class="cls-2" d="M31.58,48.5A4.25,4.25,0,0,0,36.43,45l21.1-11.55A5.67,5.67,0,1,0,55,28.68c0,.16,0,.33,0,.49L34.23,40.53a4.17,4.17,0,0,0-2-.5,4.26,4.26,0,0,0-.66,8.47Z"/><path class="cls-2" d="M90.15,72.08a5.68,5.68,0,0,0-6.82,5.56,6.25,6.25,0,0,0,.07.87L63,90a4.32,4.32,0,0,0-2.68-.2,4.26,4.26,0,1,0,5.29,4.44L86.25,82.6a5.62,5.62,0,0,0,2.76.72,5.68,5.68,0,0,0,1.14-11.24Z"/><path class="cls-2" d="M64.3,64.37a9.77,9.77,0,0,0,5.13,1.26,10.1,10.1,0,0,0,9-6.68,9.2,9.2,0,0,0,.59-3.33,4.36,4.36,0,0,1,2.09-3.84l4-2.37a6.31,6.31,0,0,0,3.91,1.26,6.39,6.39,0,1,0-6.49-6.38,7.54,7.54,0,0,0,.06.83L79,47.32a4.38,4.38,0,0,1-4.54,0,9.93,9.93,0,0,0-15.12,7.08,10.86,10.86,0,0,0-.07,1.88A4.33,4.33,0,0,1,57,60.19L35.38,72.91a5.68,5.68,0,1,0,2.54,4.73c0-.15,0-.29,0-.44L59.76,64.35A4.57,4.57,0,0,1,64.3,64.37Z"/><path class="cls-2" d="M33.62,61.17,42.44,56a5.6,5.6,0,0,0,3.42,1.05A5.78,5.78,0,0,0,50.71,54a5.31,5.31,0,0,0,.66-3.19L72.5,38.44a5.58,5.58,0,0,0,3.84.82,5.67,5.67,0,1,0-5.52-8.7,5.35,5.35,0,0,0-.94,3.66L48.73,46.58a5.61,5.61,0,0,0-3-.87A5.68,5.68,0,0,0,40,51.39a2.46,2.46,0,0,0,0,.26l-8.79,5.14a4.26,4.26,0,1,0,2.35,4.38Z"/><path class="cls-2" d="M92.11,56.46a4.27,4.27,0,0,0-5.22,3.88L66.78,72a6.39,6.39,0,0,0-10.41,5,6.66,6.66,0,0,0,.08,1L49,82.25a5.67,5.67,0,1,0,2.39,4.62c0-.09,0-.17,0-.26l7.7-4.45a6.38,6.38,0,0,0,10-5.23,5.44,5.44,0,0,0,0-.57L89.54,64.55a4,4,0,0,0,1.6.32,4.26,4.26,0,0,0,1-8.41Z"/></svg>