<svg id="图层_1" data-name="图层 1" xmlns="http://www.w3.org/2000/svg" viewBox="0 0 100 100"><defs><style>.cls-1{fill:aqua;}</style></defs><title>数据资源目录</title><path class="cls-1" d="M73,70.83l-9.6,5.54-4-6.92L43.58,78.58a4,4,0,0,0,4,6.93L63.4,76.37l4,6.93L77,77.76c.92-.53,1.63-3,.53-4.92S73.92,70.3,73,70.83Z"/><path class="cls-1" d="M22.06,44.82l17.34-10-4-6.92-17.34,10a4.39,4.39,0,0,0-1.44,5.45A4.4,4.4,0,0,0,22.06,44.82Z"/><path class="cls-1" d="M74.57,51.45,55.4,62.52l-4-6.93L24.11,71.35a4,4,0,0,0,4,6.93L55.4,62.52l4,6.93L78.57,58.38A4.35,4.35,0,0,0,79.92,53,4.36,4.36,0,0,0,74.57,51.45Z"/><path class="cls-1" d="M12,59.84a4,4,0,0,0,4,6.93L47.4,48.66l-4-6.93Z"/><path class="cls-1" d="M89.43,29A4,4,0,0,0,84,27.55L47.4,48.66l4,6.93L88,34.48A4,4,0,0,0,89.43,29Z"/><path class="cls-1" d="M72.77,20.16a4,4,0,0,0-5.46-1.47L39.4,34.8l4,6.93L71.31,25.62A4,4,0,0,0,72.77,20.16Z"/><path class="cls-1" d="M48,20.61c1.18-.68,2.1-3.28,1-5.2S45.17,13,44,13.68L31.4,21l4,6.93Z"/></svg>