<svg id="图层_1" data-name="图层 1" xmlns="http://www.w3.org/2000/svg" viewBox="0 0 100 100"><defs><style>.cls-1{fill:aqua;}</style></defs><title>元数据管理</title><path class="cls-1" d="M21,38a4.26,4.26,0,0,0,4.86-3.51L47,23a5.74,5.74,0,0,0,4.34.79,5.68,5.68,0,1,0-6.92-5.55,3.91,3.91,0,0,0,0,.49L23.66,30.05a4.35,4.35,0,0,0-2-.49A4.26,4.26,0,0,0,21,38Z"/><path class="cls-1" d="M79.57,61.6a5.68,5.68,0,0,0-6.81,5.57,6.11,6.11,0,0,0,.07.86L52.4,79.56a4.28,4.28,0,0,0-2.69-.2,4.21,4.21,0,0,0-3.11,3.21A4.26,4.26,0,1,0,55,83.79L75.68,72.13A5.68,5.68,0,1,0,79.57,61.6Z"/><path class="cls-1" d="M53.72,53.9a9.9,9.9,0,0,0,5.14,1.26,10.12,10.12,0,0,0,9-6.68,9.25,9.25,0,0,0,.59-3.34,4.32,4.32,0,0,1,2.09-3.83l4-2.38a6.35,6.35,0,0,0,3.9,1.27A6.46,6.46,0,0,0,84.82,34a6.39,6.39,0,1,0-12.77-.17,5.69,5.69,0,0,0,.06.83l-3.73,2.19a4.38,4.38,0,0,1-4.54,0A9.93,9.93,0,0,0,48.72,43.9a9.16,9.16,0,0,0-.07,1.88,4.37,4.37,0,0,1-2.19,3.94L24.81,62.44a5.7,5.7,0,0,0-4.36-.82,5.68,5.68,0,1,0,6.89,5.55c0-.15,0-.3,0-.44L49.19,53.88A4.5,4.5,0,0,1,53.72,53.9Z"/><path class="cls-1" d="M23,50.7l8.83-5.16a5.66,5.66,0,0,0,3.41,1.05,5.83,5.83,0,0,0,4.86-3.08,5.22,5.22,0,0,0,.65-3.19L61.92,28a5.71,5.71,0,1,0-1.67-7.88,5.39,5.39,0,0,0-1,3.65L38.16,36.1a5.67,5.67,0,0,0-8.69,4.81c0,.09,0,.18,0,.27l-8.79,5.13A4.21,4.21,0,0,0,18,46a4.26,4.26,0,0,0,.88,8.42A4.24,4.24,0,0,0,23,50.7Z"/><path class="cls-1" d="M81.53,46a4.25,4.25,0,0,0-5.21,3.88L56.2,61.5a6.38,6.38,0,0,0-10.41,5,6.77,6.77,0,0,0,.09,1l-7.44,4.3a5.68,5.68,0,1,0,2.38,4.62,2.09,2.09,0,0,0,0-.25l7.7-4.46a6.39,6.39,0,0,0,10.06-5.22c0-.19,0-.38,0-.57L79,54.08a4.27,4.27,0,0,0,5.76-4.88A4.19,4.19,0,0,0,81.53,46Z"/></svg>